HIERARCHY
ROOT Hips
{
  OFFSET -33.9132 29.2015 117.021
  CHANNELS 6 Xposition Yposition Zposition Zrotation Xrotation Yrotation
  JOINT LeftUpLeg
  {
    OFFSET 8.64259 1.95398 -2.38835
    CHANNELS 3 Zrotation Xrotation Yrotation
    JOINT LeftLeg
    {
      OFFSET 43.7702 0 0
      CHANNELS 3 Zrotation Xrotation Yrotation
      JOINT LeftFoot
      {
        OFFSET 40.6238 0 0
        CHANNELS 3 Zrotation Xrotation Yrotation
        JOINT LeftToeBase
        {
          OFFSET 12.7242 0 0
          CHANNELS 3 Zrotation Xrotation Yrotation
          End Site
          {
            OFFSET 0 0 0
          }
        }
      }
    }
  }
  JOINT RightUpLeg
  {
    OFFSET -8.2249 1.95398 -2.59336
    CHANNELS 3 Zrotation Xrotation Yrotation
    JOINT RightLeg
    {
      OFFSET 43.5653 0 0
      CHANNELS 3 Zrotation Xrotation Yrotation
      JOINT RightFoot
      {
        OFFSET 40.6238 0 0
        CHANNELS 3 Zrotation Xrotation Yrotation
        JOINT RightToeBase
        {
          OFFSET 12.7242 0 0
          CHANNELS 3 Zrotation Xrotation Yrotation
          End Site
          {
            OFFSET 0 0 0
          }
        }
      }
    }
  }
  JOINT Spine
  {
    OFFSET 0.165834 0.87714 6.61349
    CHANNELS 3 Zrotation Xrotation Yrotation
    JOINT Spine1
    {
      OFFSET 7.38963 1.71661e-005 0
      CHANNELS 3 Zrotation Xrotation Yrotation
      JOINT Spine2
      {
        OFFSET 11.9445 1.14441e-005 0
        CHANNELS 3 Zrotation Xrotation Yrotation
        JOINT Spine3
        {
          OFFSET 14.7254 4.19617e-005 0
          CHANNELS 3 Zrotation Xrotation Yrotation
          JOINT Spine4
          {
            OFFSET 10.9679 0 0
            CHANNELS 3 Zrotation Xrotation Yrotation
            JOINT RightShoulder
            {
              OFFSET 2.46616 -1.6653 3.69651
              CHANNELS 3 Zrotation Xrotation Yrotation
              JOINT RightArm
              {
                OFFSET 13.0012 0 0
                CHANNELS 3 Zrotation Xrotation Yrotation
                JOINT RightForeArm
                {
                  OFFSET 28.7848 1.62311e-005 0
                  CHANNELS 3 Zrotation Xrotation Yrotation
                  JOINT RightHand
                  {
                    OFFSET 26.5688 1.62095e-005 0
                    CHANNELS 3 Zrotation Xrotation Yrotation
                    End Site
                    {
                      OFFSET 0 0 0
                    }
                  }
                }
              }
            }
            JOINT LeftShoulder
            {
              OFFSET 2.38034 -1.29275 -3.7523
              CHANNELS 3 Zrotation Xrotation Yrotation
              JOINT LeftArm
              {
                OFFSET 16.3182 6.07031e-005 0
                CHANNELS 3 Zrotation Xrotation Yrotation
                JOINT LeftForeArm
                {
                  OFFSET 27.0901 0 0
                  CHANNELS 3 Zrotation Xrotation Yrotation
                  JOINT LeftHand
                  {
                    OFFSET 24.5451 1.51738e-005 0
                    CHANNELS 3 Zrotation Xrotation Yrotation
                    End Site
                    {
                      OFFSET 0 0 0
                    }
                  }
                }
              }
            }
            JOINT Neck
            {
              OFFSET 5.0226 -0.0266342 0
              CHANNELS 3 Zrotation Xrotation Yrotation
              JOINT Head
              {
                OFFSET 6.69364 2.86102e-005 0
                CHANNELS 3 Zrotation Xrotation Yrotation
                End Site
                {
                  OFFSET 0 0 0
                }
              }
            }
          }
        }
      }
    }
  }
}
MOTION
Frames:	10
Frame Time:	0.0416667
16.7458 99.021 -31.3409 -132.499 -77.6717 -134.997 -174.384 -3.77601 84.3031 -23.0637 4.34626 -2.14438 78.4916 9.66009 -1.73526 14.3522 -11.5256 7.4222 178.672 15.7917 90.0264 -20.2567 -17.0829 -2.29891 60.392 -1.67558 -0.836408 25.4996 0.974037 1.92732 -0.0791433 8.17458 -89.7591 10.5245 -0.0469461 0.482969 -1.14651 -0.0256407 0.484562 -23.681 -0.189923 0.446537 -3.66838 -0.189924 0.446533 91.2289 -27.9894 -105.036 50.5714 7.17594 3.3195 -5.27837 -41.6909 -5.43731 -14.6396 1.79373 -19.8204 -87.3812 -45.7909 81.902 -21.6512 -14.7898 -33.1618 -9.17943 20.0931 -0.0146485 12.8236 -2.81961 -24.2539 2.67557 2.98859 -0.882854 -0.108308 3.07749 -0.349482 
15.6179 98.2661 -24.0124 -141.973 -80.4459 -144.744 -173.51 -9.85382 85.7749 -19.2156 8.53571 -2.2274 81.0394 11.9819 -1.80337 16.5439 -10.9345 8.63916 177.989 15.6297 90.1831 -8.61239 -19.2101 -2.18361 60.0677 -0.423225 -0.27208 26.4833 0.551321 1.83033 -0.309233 8.03735 -89.7264 10.8008 -0.489358 0.591193 -0.870244 -0.462862 0.612149 -23.4054 -0.644412 0.416797 -3.39281 -0.644414 0.416783 90.9602 -29.6472 -104.976 50.3471 7.99188 5.78206 -5.17491 -40.1266 -5.37769 -15.3384 1.83434 -19.4125 -87.2954 -45.4278 81.9691 -25.3114 -15.3095 -37.7727 -7.80583 24.17 -0.0149702 14.2365 -3.14316 -24.0246 3.25908 2.46581 -2.31304 -0.959456 2.83297 1.23323 
13.9819 97.4276 -15.9027 -159.301 -82.6439 -160.673 -171.739 -16.0222 89.35 -15.5722 11.6698 -1.57788 82.6518 14.4901 -2.24097 19.7493 -10.562 11.4489 178.326 18.3448 91.3271 -18.0524 -16.9911 -1.91834 56.9893 2.3304 0.0335823 22.2891 1.77994 3.96401 -0.444756 7.87563 -89.9846 11.1227 -0.878104 0.114565 -0.547917 -0.872215 0.1531 -23.0854 -0.87194 -0.154659 -3.07278 -0.87194 -0.154664 91.6574 -29.1239 -103.756 51.4051 7.83141 6.33851 -5.0276 -37.7812 -5.29826 -12.5632 1.3884 -18.5685 -87.6819 -47.8541 81.8158 -29.0741 -16.8528 -35.9815 -6.48442 27.4617 -0.0153474 15.1871 -3.42054 -24.5535 4.59555 2.0427 -1.19226 -1.48449 2.23816 1.72922 
12.2559 97.7366 -7.37963 177.88 -82.3752 179.212 -169.648 -18.4346 94.4943 -19.2389 15.3719 0.568366 75.8967 11.3827 -0.0637389 33.5101 -2.70482 12.4547 177.271 16.5368 93.9711 -26.2909 -15.6859 -0.372644 60.9996 -0.0361486 -1.66397 20.3275 2.51622 4.26979 -0.477027 7.80914 -90.3437 11.2542 -1.10929 -0.573777 -0.416412 -1.13346 -0.524405 -22.9532 -0.885571 -0.880642 -2.94059 -0.885562 -0.880644 91.6831 -28.7496 -103.834 51.515 7.44836 5.21103 -4.99122 -37.1759 -5.27924 -12.9405 1.40204 -18.2847 -87.5852 -48.4848 82.0788 -28.737 -15.4736 -28.0058 -7.67329 25.1256 -0.0150488 12.6395 -2.3125 -21.0662 4.08181 1.62791 0.423803 -0.96133 1.55217 1.54224 
10.5746 98.5125 -0.365091 153.154 -80.7846 156.273 -169.854 -9.72102 98.3683 -39.0675 20.0637 2.94967 66.5539 5.19733 1.11092 28.7158 -3.75302 8.60552 175.923 10.6936 95.6686 -25.8551 -12.6766 1.4979 64.9353 -2.65126 -2.437 21.1546 1.82163 5.3299 -0.3641 7.76478 -90.5241 11.3395 -0.96878 -0.94669 -0.331431 -1.00951 -0.903147 -22.8653 -0.639497 -1.19406 -2.85265 -0.639494 -1.19406 91.4971 -28.5503 -104.283 50.3926 7.02864 2.63669 -4.98984 -37.1542 -5.27852 -13.9432 1.69689 -19.7741 -87.4695 -47.3014 82.0425 -27.9879 -13.6639 -20.0891 -8.86503 29.2839 -0.0156677 4.71856 -0.365341 -15.4342 3.62291 0.304333 0.785078 -1.90137 0.169177 0.478896 
9.64085 98.6765 4.60762 140.575 -78.3283 144.802 -171.938 3.50728 99.118 -58.7991 14.0129 4.05402 58.8037 -0.467046 0.480014 7.67898 -10.8002 0.427773 174.961 5.90809 96.6178 -25.2192 -10.0746 2.89432 67.4367 -4.14528 -1.17236 23.5108 1.15001 4.30858 0.0315974 7.989 -90.6694 10.8923 -0.246448 -1.3075 -0.779303 -0.303744 -1.2954 -23.309 0.15786 -1.32113 -3.29635 0.15786 -1.32113 91.6171 -27.4078 -104.447 48.6779 6.08248 -2.62677 -5.08102 -38.6469 -5.32619 -15.9729 2.01814 -20.2251 -87.9654 -48.8782 81.5699 -25.1642 -14.0421 -11.8703 -9.18966 32.246 -0.0162305 4.66992 -0.140529 -12.9517 4.96034 -1.68518 1.08468 -0.755347 -1.84019 0.734333 
9.38937 98.9453 8.81093 135.563 -76.7208 138.664 -172.502 12.6447 96.0235 -61.54 8.27529 2.76839 66.9989 5.23723 0.780069 8.84097 -12.6867 4.16397 174.575 2.20914 95.9459 -24.9131 -7.86299 2.64076 70.8167 -5.45078 -0.928947 21.9318 1.54968 5.16728 0.611135 8.1356 -90.5944 10.6074 0.943783 -1.26708 -1.06384 0.887108 -1.30738 -23.5988 1.28094 -0.92488 -3.58609 1.28094 -0.924879 91.0054 -27.3635 -105.729 44.6467 6.63634 -6.63959 -5.15184 -39.7687 -5.36507 -17.729 2.05145 -18.8077 -87.9213 -50.2866 81.8937 -23.2191 -14.5382 -2.35857 -9.61369 23.3065 -0.0150232 5.8264 -0.546384 -14.4885 3.68968 -3.59997 1.54029 1.10683 -3.78251 0.580387 
9.97843 99.0374 12.9616 127.511 -75.9055 128.383 -173.8 17.0759 90.6788 -47.6574 9.65149 0.563296 70.052 7.64585 0.198818 13.1571 -10.9193 5.33295 173.805 -0.191118 93.9158 -24.2533 -7.33529 2.02017 72.8209 -5.25949 -0.255855 23.7116 1.39053 3.16653 1.01002 8.108 -90.3686 10.6662 1.84181 -0.900713 -1.00384 1.80039 -0.980921 -23.549 2.02733 -0.305338 -3.5364 2.02733 -0.305339 91.094 -25.9712 -106.094 42.9458 6.39524 -10.5625 -5.13332 -39.4795 -5.35489 -16.8254 1.82894 -18.0792 -86.9703 -48.9242 83.0938 -23.5037 -13.7159 3.08311 -9.83198 22.5964 -0.0150158 4.7376 -0.588834 -15.9198 2.42457 -4.70353 2.48194 0.618988 -5.01786 0.321072 
10.9368 99.0089 17.2935 120.531 -75.7164 120.398 -174.702 17.5307 86.827 -24.562 4.56506 -1.69671 64.6815 4.41204 -0.833817 12.3688 -10.7597 4.38786 174.182 -2.96451 93.5452 -21.7908 -5.78117 1.07589 74.3226 -6.21768 -2.17185 25.3096 -0.0189046 5.79733 1.2796 8.02599 -90.34 10.8327 2.39091 -0.899278 -0.836448 2.34901 -1.00369 -23.3891 2.55058 -0.138701 -3.37644 2.55058 -0.138707 91.4413 -24.2976 -106.022 42.3933 5.61772 -14.7506 -5.19192 -40.3891 -5.3876 -18.7807 2.06074 -18.1008 -86.4425 -49.3741 83.9678 -23.9117 -13.9659 5.75815 -9.6901 23.6309 -0.0151851 5.85339 -0.734132 -15.8582 1.98042 -5.00273 5.25211 0.608943 -5.75118 -0.0973187 
12.1158 98.4596 22.1986 118.086 -76.1896 118.99 -175.732 16.1682 85.6758 -7.98453 -19.0277 -3.2846 62.398 3.48015 -0.898761 12.1304 -11.348 5.08654 174.433 -5.82125 94.4555 -21.2986 -5.65474 1.09753 75.8526 -8.16733 -3.36416 25.1156 0.309032 4.89305 1.61189 7.92982 -90.5774 11.0344 2.94122 -1.431 -0.634187 2.87538 -1.55914 -23.195 3.23518 -0.480108 -3.18234 3.23519 -0.480113 91.8003 -23.3274 -105.63 42.7962 4.65051 -17.6366 -5.28399 -41.7754 -5.44062 -18.4282 2.39413 -20.4579 -86.7019 -51.7432 83.9481 -24.0248 -15.3673 6.88943 -9.30035 21.3496 -0.0149571 5.09639 -0.713311 -16.6238 1.45347 -5.62814 7.71824 0.989853 -6.71179 0.168275 
